<svg width="218" height="88" viewBox="0 0 218 88" fill="none" xmlns="http://www.w3.org/2000/svg">
<path d="M50 25H24V51H50V25Z" fill="#B5C5C3"/>
<path d="M40.75 63C40.75 56.58 45.96 51.37 52.38 51.37C58.8 51.37 64 56.58 64 63H40.75Z" fill="#33404F"/>
<path d="M52.37 50.21C55.2585 50.21 57.6 47.8684 57.6 44.98C57.6 42.0916 55.2585 39.75 52.37 39.75C49.4816 39.75 47.14 42.0916 47.14 44.98C47.14 47.8684 49.4816 50.21 52.37 50.21Z" fill="#33404F"/>
<path d="M39.23 44.46C42.1185 44.46 44.46 42.1184 44.46 39.23C44.46 36.3416 42.1185 34 39.23 34C36.3416 34 34 36.3416 34 39.23C34 42.1184 36.3416 44.46 39.23 44.46Z" fill="#33404F"/>
<path d="M49.19 50.9C47.09 47.87 43.59 45.88 39.63 45.88C33.21 45.87 28 51.08 28 57.5H40.61C42.39 54.23 45.49 51.8 49.19 50.9Z" fill="#33404F"/>
</svg>
