<svg width="218" height="88" viewBox="0 0 218 88" fill="none" xmlns="http://www.w3.org/2000/svg">
<path d="M118 24H92V50H118V24Z" fill="#B5C5C3"/>
<path d="M109 29C100.72 29 94 35.27 94 43C94 46.21 95.17 49.16 97.11 51.52L94 56.5L100.9 54.77C103.24 56.18 106.02 57 109 57C117.28 57 124 50.73 124 43C124 35.27 117.28 29 109 29Z" fill="#33404F"/>
<path d="M132 50C132 44.62 128.75 39.96 123.99 37.62C124.68 39.29 125.07 41.1 125.07 43C125.07 51.28 117.87 58 109 58C107.34 58 105.74 57.76 104.23 57.32C106.87 61.32 111.59 64 117 64C119.98 64 122.76 63.18 125.1 61.77L132 63.5L128.89 58.52C130.83 56.16 132 53.21 132 50Z" fill="#33404F"/>
<path d="M112.28 42.45L110.76 44.06C110.38 44.47 110.17 44.89 110.17 45.38V46.54H107.45V45.14C107.45 44.49 107.78 43.88 108.25 43.39L109.76 41.78C110.33 41.19 110.43 40.68 110.43 39.89C110.43 39.18 110.33 38.69 109.92 38.32C109.64 38.08 109.3 37.93 108.82 37.93C108.36 37.93 108 38.05 107.72 38.3C107.26 38.71 107.23 39.32 107.23 39.89H104.5C104.5 38.67 104.81 37.63 105.71 36.96C106.43 36.43 107.41 36 108.79 36C110.15 36 111.2 36.33 111.92 36.92C112.82 37.63 113.15 38.53 113.15 39.95C113.15 41.07 112.9 41.8 112.28 42.45ZM107.22 50.61V48.11H110.4V50.61H107.22Z" fill="white"/>
</svg>
