<svg width="218" height="88" viewBox="0 0 218 88" fill="none" xmlns="http://www.w3.org/2000/svg">
<path d="M187 24H161V50H187V24Z" fill="#B5C5C3"/>
<path d="M180.01 59.93C171.61 54.28 166.46 44.74 166.46 34.54C166.46 34.48 166.46 34.42 166.46 34.36C171.2 34.14 175.82 32.93 180.01 30.83V27.44C175.48 30.01 170.3 31.39 165.01 31.4H163.6L163.51 32.81C163.48 33.38 163.46 33.96 163.46 34.55C163.46 46.41 169.8 57.47 180.01 63.49V59.93Z" fill="#33404F"/>
<path d="M198.51 32.81L198.42 31.4H197.01C191.71 31.39 186.54 30.01 182.01 27.44V30.83C186.2 32.93 190.82 34.15 195.56 34.36C195.56 34.42 195.56 34.48 195.56 34.54C195.56 44.74 190.41 54.28 182.01 59.93V63.48C192.22 57.46 198.56 46.4 198.56 34.54C198.56 33.95 198.54 33.38 198.51 32.81Z" fill="#33404F"/>
<path d="M180.51 38.79L181.01 38.5L181.51 38.79C184.97 40.8 188.94 41.89 193 41.98C193.33 40.36 193.51 38.68 193.51 36.96C193.51 36.52 193.5 36.1 193.47 35.68C188.93 35.67 184.68 34.46 181.01 32.33C177.34 34.46 173.09 35.66 168.55 35.68C168.52 36.1 168.51 36.53 168.51 36.96C168.51 38.68 168.68 40.36 169.02 41.98C173.08 41.89 177.04 40.8 180.51 38.79Z" fill="#33404F"/>
<path d="M181.01 40.8C177.51 42.73 173.56 43.81 169.51 43.97C171.33 50.2 175.5 55.43 181.01 58.62C186.52 55.44 190.69 50.21 192.51 43.97C188.46 43.81 184.51 42.73 181.01 40.8Z" fill="#33404F"/>
</svg>
